<?xml version="1.0" encoding="UTF-8" standalone="no"?>
<!DOCTYPE svg PUBLIC "-//W3C//DTD SVG 1.1//EN"
 "http://www.w3.org/Graphics/SVG/1.1/DTD/svg11.dtd">
<!-- Generated by graphviz version 2.43.0 (0)
 -->
<!-- Title: GVmap Pages: 1 -->
<svg width="439pt" height="716pt"
 viewBox="0.00 0.00 439.00 716.00" xmlns="http://www.w3.org/2000/svg" xmlns:xlink="http://www.w3.org/1999/xlink">
<g id="graph0" class="graph" transform="scale(1 1) rotate(0) translate(4 712)">
<title>GVmap</title>
<polygon fill="white" stroke="transparent" points="-4,4 -4,-712 435,-712 435,4 -4,4"/>
<text text-anchor="middle" x="215.5" y="-7.8" font-family="Times,serif" font-size="14.00">tapschema data model</text>
<!-- tapschema:TableType -->
<g id="node1" class="node">
<title>tapschema:TableType</title>
<g id="a_node1"><a xlink:href="../tapschema/TableType" xlink:title="{&amp;lt;&amp;lt;enumeration&amp;gt;&amp;gt;\nTableType|+table\l+view\l}">
<polygon fill="#8dd3c7" stroke="black" points="0,-597 0,-649 94,-649 94,-597 0,-597"/>
<text text-anchor="middle" x="47" y="-638.6" font-family="Times,serif" font-size="8.00">&lt;&lt;enumeration&gt;&gt;</text>
<text text-anchor="middle" x="47" y="-629.6" font-family="Times,serif" font-size="8.00">TableType</text>
<polyline fill="none" stroke="black" points="0,-623 94,-623 "/>
<text text-anchor="start" x="8" y="-612.6" font-family="Times,serif" font-size="8.00">+table</text>
<text text-anchor="start" x="8" y="-603.6" font-family="Times,serif" font-size="8.00">+view</text>
</a>
</g>
</g>
<!-- tapschema:TAPType -->
<g id="node2" class="node">
<title>tapschema:TAPType</title>
<g id="a_node2"><a xlink:href="../tapschema/TAPType" xlink:title="{&amp;lt;&amp;lt;enumeration&amp;gt;&amp;gt;\nTAPType|+BOOLEAN\l+SMALLINT\l+INTEGER\l+BIGINT\l+REAL\l+DOUBLE\l+TIMESTAMP\l+CHAR\l+VARCHAR\l+BINARY\l+VARBINARY\l+POINT\l+REGION\l+CLOB\l+BLOB\l}">
<polygon fill="#8dd3c7" stroke="black" points="112,-538.5 112,-707.5 206,-707.5 206,-538.5 112,-538.5"/>
<text text-anchor="middle" x="159" y="-697.1" font-family="Times,serif" font-size="8.00">&lt;&lt;enumeration&gt;&gt;</text>
<text text-anchor="middle" x="159" y="-688.1" font-family="Times,serif" font-size="8.00">TAPType</text>
<polyline fill="none" stroke="black" points="112,-681.5 206,-681.5 "/>
<text text-anchor="start" x="120" y="-671.1" font-family="Times,serif" font-size="8.00">+BOOLEAN</text>
<text text-anchor="start" x="120" y="-662.1" font-family="Times,serif" font-size="8.00">+SMALLINT</text>
<text text-anchor="start" x="120" y="-653.1" font-family="Times,serif" font-size="8.00">+INTEGER</text>
<text text-anchor="start" x="120" y="-644.1" font-family="Times,serif" font-size="8.00">+BIGINT</text>
<text text-anchor="start" x="120" y="-635.1" font-family="Times,serif" font-size="8.00">+REAL</text>
<text text-anchor="start" x="120" y="-626.1" font-family="Times,serif" font-size="8.00">+DOUBLE</text>
<text text-anchor="start" x="120" y="-617.1" font-family="Times,serif" font-size="8.00">+TIMESTAMP</text>
<text text-anchor="start" x="120" y="-608.1" font-family="Times,serif" font-size="8.00">+CHAR</text>
<text text-anchor="start" x="120" y="-599.1" font-family="Times,serif" font-size="8.00">+VARCHAR</text>
<text text-anchor="start" x="120" y="-590.1" font-family="Times,serif" font-size="8.00">+BINARY</text>
<text text-anchor="start" x="120" y="-581.1" font-family="Times,serif" font-size="8.00">+VARBINARY</text>
<text text-anchor="start" x="120" y="-572.1" font-family="Times,serif" font-size="8.00">+POINT</text>
<text text-anchor="start" x="120" y="-563.1" font-family="Times,serif" font-size="8.00">+REGION</text>
<text text-anchor="start" x="120" y="-554.1" font-family="Times,serif" font-size="8.00">+CLOB</text>
<text text-anchor="start" x="120" y="-545.1" font-family="Times,serif" font-size="8.00">+BLOB</text>
</a>
</g>
</g>
<!-- tapschema:Schema -->
<g id="node3" class="node">
<title>tapschema:Schema</title>
<g id="a_node3"><a xlink:href="../tapschema/Schema" xlink:title="{Schema|+schema_name : ivoa:string\l+utype : ivoa:string\l+description : ivoa:string\l+schema_index : ivoa:integer\l}">
<polygon fill="#8dd3c7" stroke="black" points="224,-592.5 224,-653.5 358,-653.5 358,-592.5 224,-592.5"/>
<text text-anchor="middle" x="291" y="-643.1" font-family="Times,serif" font-size="8.00">Schema</text>
<polyline fill="none" stroke="black" points="224,-636.5 358,-636.5 "/>
<text text-anchor="start" x="232" y="-626.1" font-family="Times,serif" font-size="8.00">+schema_name : ivoa:string</text>
<text text-anchor="start" x="232" y="-617.1" font-family="Times,serif" font-size="8.00">+utype : ivoa:string</text>
<text text-anchor="start" x="232" y="-608.1" font-family="Times,serif" font-size="8.00">+description : ivoa:string</text>
<text text-anchor="start" x="232" y="-599.1" font-family="Times,serif" font-size="8.00">+schema_index : ivoa:integer</text>
</a>
</g>
</g>
<!-- tapschema:table -->
<g id="node4" class="node">
<title>tapschema:table</title>
<g id="a_node4"><a xlink:href="../tapschema/table" xlink:title="{table|+table_name : ivoa:string\l+table_type : tapschema:TableType\l+utype : ivoa:string\l+description : ivoa:string\l+table_index : ivoa:integer\l}">
<polygon fill="#8dd3c7" stroke="black" points="212,-420.5 212,-490.5 370,-490.5 370,-420.5 212,-420.5"/>
<text text-anchor="middle" x="291" y="-480.1" font-family="Times,serif" font-size="8.00">table</text>
<polyline fill="none" stroke="black" points="212,-473.5 370,-473.5 "/>
<text text-anchor="start" x="220" y="-463.1" font-family="Times,serif" font-size="8.00">+table_name : ivoa:string</text>
<text text-anchor="start" x="220" y="-454.1" font-family="Times,serif" font-size="8.00">+table_type : tapschema:TableType</text>
<text text-anchor="start" x="220" y="-445.1" font-family="Times,serif" font-size="8.00">+utype : ivoa:string</text>
<text text-anchor="start" x="220" y="-436.1" font-family="Times,serif" font-size="8.00">+description : ivoa:string</text>
<text text-anchor="start" x="220" y="-427.1" font-family="Times,serif" font-size="8.00">+table_index : ivoa:integer</text>
</a>
</g>
</g>
<!-- tapschema:Schema&#45;&gt;tapschema:table -->
<g id="edge1" class="edge">
<title>tapschema:Schema&#45;&gt;tapschema:table</title>
<path fill="none" stroke="blue" d="M291,-580.33C291,-556.09 291,-525.56 291,-500.87"/>
<polygon fill="blue" stroke="blue" points="291,-580.41 295,-586.41 291,-592.41 287,-586.41 291,-580.41"/>
<polygon fill="blue" stroke="blue" points="291,-490.69 295.5,-500.69 291,-495.69 291,-500.69 291,-500.69 291,-500.69 291,-495.69 286.5,-500.69 291,-490.69 291,-490.69"/>
<text text-anchor="middle" x="306.5" y="-512" font-family="Times,serif" font-size="10.00">tables</text>
<text text-anchor="middle" x="282" y="-493.69" font-family="Times,serif" font-size="10.00">1..*</text>
</g>
<!-- tapschema:column -->
<g id="node5" class="node">
<title>tapschema:column</title>
<g id="a_node5"><a xlink:href="../tapschema/column" xlink:title="{column|+column_name : ivoa:string\l+datatype : tapschema:TAPType\l+arraysize : ivoa:string\l+xtype : ivoa:string\l+description : ivoa:string\l+utype : ivoa:string\l+unit : ivoa:string\l+ucd : ivoa:string\l+indexed : ivoa:boolean\l+principal : ivoa:boolean\l+std : ivoa:boolean\l+column_index : ivoa:integer\l}">
<polygon fill="#8dd3c7" stroke="black" points="214.5,-55.5 214.5,-188.5 361.5,-188.5 361.5,-55.5 214.5,-55.5"/>
<text text-anchor="middle" x="288" y="-178.1" font-family="Times,serif" font-size="8.00">column</text>
<polyline fill="none" stroke="black" points="214.5,-171.5 361.5,-171.5 "/>
<text text-anchor="start" x="222.5" y="-161.1" font-family="Times,serif" font-size="8.00">+column_name : ivoa:string</text>
<text text-anchor="start" x="222.5" y="-152.1" font-family="Times,serif" font-size="8.00">+datatype : tapschema:TAPType</text>
<text text-anchor="start" x="222.5" y="-143.1" font-family="Times,serif" font-size="8.00">+arraysize : ivoa:string</text>
<text text-anchor="start" x="222.5" y="-134.1" font-family="Times,serif" font-size="8.00">+xtype : ivoa:string</text>
<text text-anchor="start" x="222.5" y="-125.1" font-family="Times,serif" font-size="8.00">+description : ivoa:string</text>
<text text-anchor="start" x="222.5" y="-116.1" font-family="Times,serif" font-size="8.00">+utype : ivoa:string</text>
<text text-anchor="start" x="222.5" y="-107.1" font-family="Times,serif" font-size="8.00">+unit : ivoa:string</text>
<text text-anchor="start" x="222.5" y="-98.1" font-family="Times,serif" font-size="8.00">+ucd : ivoa:string</text>
<text text-anchor="start" x="222.5" y="-89.1" font-family="Times,serif" font-size="8.00">+indexed : ivoa:boolean</text>
<text text-anchor="start" x="222.5" y="-80.1" font-family="Times,serif" font-size="8.00">+principal : ivoa:boolean</text>
<text text-anchor="start" x="222.5" y="-71.1" font-family="Times,serif" font-size="8.00">+std : ivoa:boolean</text>
<text text-anchor="start" x="222.5" y="-62.1" font-family="Times,serif" font-size="8.00">+column_index : ivoa:integer</text>
</a>
</g>
</g>
<!-- tapschema:table&#45;&gt;tapschema:column -->
<g id="edge2" class="edge">
<title>tapschema:table&#45;&gt;tapschema:column</title>
<path fill="none" stroke="blue" d="M279.63,-408.23C277.29,-396.79 275.19,-384.51 274,-373 267.98,-314.64 272.2,-248.34 277.53,-198.68"/>
<polygon fill="blue" stroke="blue" points="279.69,-408.52 284.87,-413.54 282.22,-420.25 277.05,-415.22 279.69,-408.52"/>
<polygon fill="blue" stroke="blue" points="278.65,-188.67 282.01,-199.1 278.09,-193.64 277.54,-198.61 277.54,-198.61 277.54,-198.61 278.09,-193.64 273.07,-198.11 278.65,-188.67 278.65,-188.67"/>
<text text-anchor="middle" x="293.5" y="-294" font-family="Times,serif" font-size="10.00">columns</text>
<text text-anchor="middle" x="287.65" y="-191.67" font-family="Times,serif" font-size="10.00">1..*</text>
</g>
<!-- tapschema:ForeignKey -->
<g id="node6" class="node">
<title>tapschema:ForeignKey</title>
<g id="a_node6"><a xlink:href="../tapschema/ForeignKey" xlink:title="{ForeignKey|+key_id : ivoa:string\l+description : ivoa:string\l+utype : ivoa:string\l}">
<polygon fill="#8dd3c7" stroke="black" points="283.5,-320.5 283.5,-372.5 400.5,-372.5 400.5,-320.5 283.5,-320.5"/>
<text text-anchor="middle" x="342" y="-362.1" font-family="Times,serif" font-size="8.00">ForeignKey</text>
<polyline fill="none" stroke="black" points="283.5,-355.5 400.5,-355.5 "/>
<text text-anchor="start" x="291.5" y="-345.1" font-family="Times,serif" font-size="8.00">+key_id : ivoa:string</text>
<text text-anchor="start" x="291.5" y="-336.1" font-family="Times,serif" font-size="8.00">+description : ivoa:string</text>
<text text-anchor="start" x="291.5" y="-327.1" font-family="Times,serif" font-size="8.00">+utype : ivoa:string</text>
</a>
</g>
</g>
<!-- tapschema:table&#45;&gt;tapschema:ForeignKey -->
<g id="edge3" class="edge">
<title>tapschema:table&#45;&gt;tapschema:ForeignKey</title>
<path fill="none" stroke="blue" d="M287.22,-408.18C288.02,-402.22 289.52,-396.34 292,-391 293.7,-387.35 295.87,-383.88 298.34,-380.62"/>
<polygon fill="blue" stroke="blue" points="287.21,-408.4 290.81,-414.65 286.44,-420.38 282.83,-414.13 287.21,-408.4"/>
<polygon fill="blue" stroke="blue" points="305.05,-372.94 301.87,-383.43 301.76,-376.7 298.48,-380.47 298.48,-380.47 298.48,-380.47 301.76,-376.7 295.09,-377.51 305.05,-372.94 305.05,-372.94"/>
<text text-anchor="middle" x="306" y="-394" font-family="Times,serif" font-size="10.00">fkeys</text>
<text text-anchor="middle" x="296.05" y="-375.94" font-family="Times,serif" font-size="10.00">0..*</text>
</g>
<!-- tapschema:ForeignKey&#45;&gt;tapschema:table -->
<g id="edge5" class="edge">
<title>tapschema:ForeignKey&#45;&gt;tapschema:table</title>
<path fill="none" stroke="green" d="M332.55,-372.74C328.87,-382.04 324.47,-392.6 320,-402 318.52,-405.1 316.95,-408.28 315.32,-411.46"/>
<polygon fill="green" stroke="green" points="310.64,-420.36 311.31,-409.41 312.96,-415.93 315.29,-411.51 315.29,-411.51 315.29,-411.51 312.96,-415.93 319.27,-413.6 310.64,-420.36 310.64,-420.36"/>
<text text-anchor="middle" x="355" y="-394" font-family="Times,serif" font-size="10.00">target_table</text>
<text text-anchor="middle" x="307.14" y="-412.36" font-family="Times,serif" font-size="10.00">1</text>
</g>
<!-- tapschema:FKColumn -->
<g id="node7" class="node">
<title>tapschema:FKColumn</title>
<g id="a_node7"><a xlink:href="../tapschema/FKColumn" xlink:title="{FKColumn}">
<polygon fill="#8dd3c7" stroke="black" points="312.5,-236.5 312.5,-272.5 371.5,-272.5 371.5,-236.5 312.5,-236.5"/>
<text text-anchor="middle" x="342" y="-252.6" font-family="Times,serif" font-size="8.00">FKColumn</text>
</a>
</g>
</g>
<!-- tapschema:ForeignKey&#45;&gt;tapschema:FKColumn -->
<g id="edge4" class="edge">
<title>tapschema:ForeignKey&#45;&gt;tapschema:FKColumn</title>
<path fill="none" stroke="blue" d="M342,-308.09C342,-299.65 342,-290.85 342,-282.92"/>
<polygon fill="blue" stroke="blue" points="342,-308.43 346,-314.43 342,-320.43 338,-314.43 342,-308.43"/>
<polygon fill="blue" stroke="blue" points="342,-272.75 346.5,-282.75 342,-277.75 342,-282.75 342,-282.75 342,-282.75 342,-277.75 337.5,-282.75 342,-272.75 342,-272.75"/>
<text text-anchor="middle" x="363.5" y="-294" font-family="Times,serif" font-size="10.00">columns</text>
<text text-anchor="middle" x="333" y="-275.75" font-family="Times,serif" font-size="10.00">1..*</text>
</g>
<!-- tapschema:FKColumn&#45;&gt;tapschema:column -->
<g id="edge6" class="edge">
<title>tapschema:FKColumn&#45;&gt;tapschema:column</title>
<path fill="none" stroke="green" d="M312.25,-240.53C303.14,-234.99 294.16,-227.55 289,-218 285.79,-212.05 283.57,-205.58 282.13,-198.89"/>
<polygon fill="green" stroke="green" points="280.53,-188.98 286.57,-198.14 281.33,-193.92 282.12,-198.85 282.12,-198.85 282.12,-198.85 281.33,-193.92 277.68,-199.57 280.53,-188.98 280.53,-188.98"/>
<text text-anchor="middle" x="322.5" y="-210" font-family="Times,serif" font-size="10.00">from_column</text>
<text text-anchor="middle" x="277.03" y="-191.98" font-family="Times,serif" font-size="10.00">1</text>
</g>
<!-- tapschema:FKColumn&#45;&gt;tapschema:column -->
<g id="edge7" class="edge">
<title>tapschema:FKColumn&#45;&gt;tapschema:column</title>
<path fill="none" stroke="green" d="M352.51,-236.15C356.51,-227.35 359.38,-216.54 356,-207 354.89,-203.86 353.6,-200.75 352.18,-197.69"/>
<polygon fill="green" stroke="green" points="347.49,-188.63 356.08,-195.44 349.79,-193.07 352.09,-197.51 352.09,-197.51 352.09,-197.51 349.79,-193.07 348.09,-199.58 347.49,-188.63 347.49,-188.63"/>
<text text-anchor="middle" x="394" y="-210" font-family="Times,serif" font-size="10.00">target_column</text>
<text text-anchor="middle" x="343.99" y="-191.63" font-family="Times,serif" font-size="10.00">1</text>
</g>
</g>
</svg>
