<?xml version="1.0" encoding="UTF-8" standalone="no"?>
<!DOCTYPE svg PUBLIC "-//W3C//DTD SVG 1.1//EN"
 "http://www.w3.org/Graphics/SVG/1.1/DTD/svg11.dtd">
<!-- Generated by graphviz version 2.43.0 (0)
 -->
<!-- Title: GVmap Pages: 1 -->
<svg width="439pt" height="725pt"
 viewBox="0.00 0.00 439.00 725.00" xmlns="http://www.w3.org/2000/svg" xmlns:xlink="http://www.w3.org/1999/xlink">
<g id="graph0" class="graph" transform="scale(1 1) rotate(0) translate(4 721)">
<title>GVmap</title>
<polygon fill="white" stroke="transparent" points="-4,4 -4,-721 435,-721 435,4 -4,4"/>
<text text-anchor="middle" x="215.5" y="-7.8" font-family="Times,serif" font-size="14.00">tapschema data model</text>
<!-- tapschema:TableType -->
<g id="node1" class="node">
<title>tapschema:TableType</title>
<g id="a_node1"><a xlink:href="../tapschema/TableType" xlink:title="{&amp;lt;&amp;lt;enumeration&amp;gt;&amp;gt;\nTableType|+table\l+view\l}">
<polygon fill="#8dd3c7" stroke="black" points="0,-606 0,-658 94,-658 94,-606 0,-606"/>
<text text-anchor="middle" x="47" y="-647.6" font-family="Times,serif" font-size="8.00">&lt;&lt;enumeration&gt;&gt;</text>
<text text-anchor="middle" x="47" y="-638.6" font-family="Times,serif" font-size="8.00">TableType</text>
<polyline fill="none" stroke="black" points="0,-632 94,-632 "/>
<text text-anchor="start" x="8" y="-621.6" font-family="Times,serif" font-size="8.00">+table</text>
<text text-anchor="start" x="8" y="-612.6" font-family="Times,serif" font-size="8.00">+view</text>
</a>
</g>
</g>
<!-- tapschema:TAPType -->
<g id="node2" class="node">
<title>tapschema:TAPType</title>
<g id="a_node2"><a xlink:href="../tapschema/TAPType" xlink:title="{&amp;lt;&amp;lt;enumeration&amp;gt;&amp;gt;\nTAPType|+BOOLEAN\l+SMALLINT\l+INTEGER\l+BIGINT\l+REAL\l+DOUBLE\l+TIMESTAMP\l+CHAR\l+VARCHAR\l+BINARY\l+VARBINARY\l+POINT\l+REGION\l+CLOB\l+BLOB\l}">
<polygon fill="#8dd3c7" stroke="black" points="112,-547.5 112,-716.5 206,-716.5 206,-547.5 112,-547.5"/>
<text text-anchor="middle" x="159" y="-706.1" font-family="Times,serif" font-size="8.00">&lt;&lt;enumeration&gt;&gt;</text>
<text text-anchor="middle" x="159" y="-697.1" font-family="Times,serif" font-size="8.00">TAPType</text>
<polyline fill="none" stroke="black" points="112,-690.5 206,-690.5 "/>
<text text-anchor="start" x="120" y="-680.1" font-family="Times,serif" font-size="8.00">+BOOLEAN</text>
<text text-anchor="start" x="120" y="-671.1" font-family="Times,serif" font-size="8.00">+SMALLINT</text>
<text text-anchor="start" x="120" y="-662.1" font-family="Times,serif" font-size="8.00">+INTEGER</text>
<text text-anchor="start" x="120" y="-653.1" font-family="Times,serif" font-size="8.00">+BIGINT</text>
<text text-anchor="start" x="120" y="-644.1" font-family="Times,serif" font-size="8.00">+REAL</text>
<text text-anchor="start" x="120" y="-635.1" font-family="Times,serif" font-size="8.00">+DOUBLE</text>
<text text-anchor="start" x="120" y="-626.1" font-family="Times,serif" font-size="8.00">+TIMESTAMP</text>
<text text-anchor="start" x="120" y="-617.1" font-family="Times,serif" font-size="8.00">+CHAR</text>
<text text-anchor="start" x="120" y="-608.1" font-family="Times,serif" font-size="8.00">+VARCHAR</text>
<text text-anchor="start" x="120" y="-599.1" font-family="Times,serif" font-size="8.00">+BINARY</text>
<text text-anchor="start" x="120" y="-590.1" font-family="Times,serif" font-size="8.00">+VARBINARY</text>
<text text-anchor="start" x="120" y="-581.1" font-family="Times,serif" font-size="8.00">+POINT</text>
<text text-anchor="start" x="120" y="-572.1" font-family="Times,serif" font-size="8.00">+REGION</text>
<text text-anchor="start" x="120" y="-563.1" font-family="Times,serif" font-size="8.00">+CLOB</text>
<text text-anchor="start" x="120" y="-554.1" font-family="Times,serif" font-size="8.00">+BLOB</text>
</a>
</g>
</g>
<!-- tapschema:Schema -->
<g id="node3" class="node">
<title>tapschema:Schema</title>
<g id="a_node3"><a xlink:href="../tapschema/Schema" xlink:title="{Schema|+schema_name : ivoa:string\l+utype : ivoa:string\l+description : ivoa:string\l+schema_index : ivoa:integer\l}">
<polygon fill="#8dd3c7" stroke="black" points="224,-601.5 224,-662.5 358,-662.5 358,-601.5 224,-601.5"/>
<text text-anchor="middle" x="291" y="-652.1" font-family="Times,serif" font-size="8.00">Schema</text>
<polyline fill="none" stroke="black" points="224,-645.5 358,-645.5 "/>
<text text-anchor="start" x="232" y="-635.1" font-family="Times,serif" font-size="8.00">+schema_name : ivoa:string</text>
<text text-anchor="start" x="232" y="-626.1" font-family="Times,serif" font-size="8.00">+utype : ivoa:string</text>
<text text-anchor="start" x="232" y="-617.1" font-family="Times,serif" font-size="8.00">+description : ivoa:string</text>
<text text-anchor="start" x="232" y="-608.1" font-family="Times,serif" font-size="8.00">+schema_index : ivoa:integer</text>
</a>
</g>
</g>
<!-- tapschema:table -->
<g id="node4" class="node">
<title>tapschema:table</title>
<g id="a_node4"><a xlink:href="../tapschema/table" xlink:title="{table|+table_name : ivoa:string\l+table_type : tapschema:TableType\l+utype : ivoa:string\l+description : ivoa:string\l+table_index : ivoa:integer\l}">
<polygon fill="#8dd3c7" stroke="black" points="212,-429.5 212,-499.5 370,-499.5 370,-429.5 212,-429.5"/>
<text text-anchor="middle" x="291" y="-489.1" font-family="Times,serif" font-size="8.00">table</text>
<polyline fill="none" stroke="black" points="212,-482.5 370,-482.5 "/>
<text text-anchor="start" x="220" y="-472.1" font-family="Times,serif" font-size="8.00">+table_name : ivoa:string</text>
<text text-anchor="start" x="220" y="-463.1" font-family="Times,serif" font-size="8.00">+table_type : tapschema:TableType</text>
<text text-anchor="start" x="220" y="-454.1" font-family="Times,serif" font-size="8.00">+utype : ivoa:string</text>
<text text-anchor="start" x="220" y="-445.1" font-family="Times,serif" font-size="8.00">+description : ivoa:string</text>
<text text-anchor="start" x="220" y="-436.1" font-family="Times,serif" font-size="8.00">+table_index : ivoa:integer</text>
</a>
</g>
</g>
<!-- tapschema:Schema&#45;&gt;tapschema:table -->
<g id="edge1" class="edge">
<title>tapschema:Schema&#45;&gt;tapschema:table</title>
<path fill="none" stroke="blue" d="M291,-589.33C291,-565.09 291,-534.56 291,-509.87"/>
<polygon fill="blue" stroke="blue" points="291,-589.41 295,-595.41 291,-601.41 287,-595.41 291,-589.41"/>
<polygon fill="blue" stroke="blue" points="291,-499.69 295.5,-509.69 291,-504.69 291,-509.69 291,-509.69 291,-509.69 291,-504.69 286.5,-509.69 291,-499.69 291,-499.69"/>
<text text-anchor="middle" x="306.5" y="-521" font-family="Times,serif" font-size="10.00">tables</text>
<text text-anchor="middle" x="282" y="-502.69" font-family="Times,serif" font-size="10.00">1..*</text>
</g>
<!-- tapschema:column -->
<g id="node5" class="node">
<title>tapschema:column</title>
<g id="a_node5"><a xlink:href="../tapschema/column" xlink:title="{column|+column_name : ivoa:string\l+datatype : tapschema:TAPType\l+arraysize : ivoa:string\l+xtype : ivoa:string\l+size : ivoa:integer\l+description : ivoa:string\l+utype : ivoa:string\l+unit : ivoa:string\l+ucd : ivoa:string\l+indexed : ivoa:boolean\l+principal : ivoa:boolean\l+std : ivoa:boolean\l+column_index : ivoa:integer\l}">
<polygon fill="#8dd3c7" stroke="black" points="214.5,-55.5 214.5,-197.5 361.5,-197.5 361.5,-55.5 214.5,-55.5"/>
<text text-anchor="middle" x="288" y="-187.1" font-family="Times,serif" font-size="8.00">column</text>
<polyline fill="none" stroke="black" points="214.5,-180.5 361.5,-180.5 "/>
<text text-anchor="start" x="222.5" y="-170.1" font-family="Times,serif" font-size="8.00">+column_name : ivoa:string</text>
<text text-anchor="start" x="222.5" y="-161.1" font-family="Times,serif" font-size="8.00">+datatype : tapschema:TAPType</text>
<text text-anchor="start" x="222.5" y="-152.1" font-family="Times,serif" font-size="8.00">+arraysize : ivoa:string</text>
<text text-anchor="start" x="222.5" y="-143.1" font-family="Times,serif" font-size="8.00">+xtype : ivoa:string</text>
<text text-anchor="start" x="222.5" y="-134.1" font-family="Times,serif" font-size="8.00">+size : ivoa:integer</text>
<text text-anchor="start" x="222.5" y="-125.1" font-family="Times,serif" font-size="8.00">+description : ivoa:string</text>
<text text-anchor="start" x="222.5" y="-116.1" font-family="Times,serif" font-size="8.00">+utype : ivoa:string</text>
<text text-anchor="start" x="222.5" y="-107.1" font-family="Times,serif" font-size="8.00">+unit : ivoa:string</text>
<text text-anchor="start" x="222.5" y="-98.1" font-family="Times,serif" font-size="8.00">+ucd : ivoa:string</text>
<text text-anchor="start" x="222.5" y="-89.1" font-family="Times,serif" font-size="8.00">+indexed : ivoa:boolean</text>
<text text-anchor="start" x="222.5" y="-80.1" font-family="Times,serif" font-size="8.00">+principal : ivoa:boolean</text>
<text text-anchor="start" x="222.5" y="-71.1" font-family="Times,serif" font-size="8.00">+std : ivoa:boolean</text>
<text text-anchor="start" x="222.5" y="-62.1" font-family="Times,serif" font-size="8.00">+column_index : ivoa:integer</text>
</a>
</g>
</g>
<!-- tapschema:table&#45;&gt;tapschema:column -->
<g id="edge2" class="edge">
<title>tapschema:table&#45;&gt;tapschema:column</title>
<path fill="none" stroke="blue" d="M279.63,-417.23C277.29,-405.79 275.19,-393.51 274,-382 268,-323.83 271.92,-257.9 277.13,-207.72"/>
<polygon fill="blue" stroke="blue" points="279.69,-417.52 284.87,-422.54 282.22,-429.25 277.05,-424.22 279.69,-417.52"/>
<polygon fill="blue" stroke="blue" points="278.22,-197.59 281.62,-208.01 277.68,-202.56 277.15,-207.53 277.15,-207.53 277.15,-207.53 277.68,-202.56 272.67,-207.05 278.22,-197.59 278.22,-197.59"/>
<text text-anchor="middle" x="293.5" y="-303" font-family="Times,serif" font-size="10.00">columns</text>
<text text-anchor="middle" x="287.22" y="-200.59" font-family="Times,serif" font-size="10.00">1..*</text>
</g>
<!-- tapschema:ForeignKey -->
<g id="node6" class="node">
<title>tapschema:ForeignKey</title>
<g id="a_node6"><a xlink:href="../tapschema/ForeignKey" xlink:title="{ForeignKey|+key_id : ivoa:string\l+description : ivoa:string\l+utype : ivoa:string\l}">
<polygon fill="#8dd3c7" stroke="black" points="283.5,-329.5 283.5,-381.5 400.5,-381.5 400.5,-329.5 283.5,-329.5"/>
<text text-anchor="middle" x="342" y="-371.1" font-family="Times,serif" font-size="8.00">ForeignKey</text>
<polyline fill="none" stroke="black" points="283.5,-364.5 400.5,-364.5 "/>
<text text-anchor="start" x="291.5" y="-354.1" font-family="Times,serif" font-size="8.00">+key_id : ivoa:string</text>
<text text-anchor="start" x="291.5" y="-345.1" font-family="Times,serif" font-size="8.00">+description : ivoa:string</text>
<text text-anchor="start" x="291.5" y="-336.1" font-family="Times,serif" font-size="8.00">+utype : ivoa:string</text>
</a>
</g>
</g>
<!-- tapschema:table&#45;&gt;tapschema:ForeignKey -->
<g id="edge3" class="edge">
<title>tapschema:table&#45;&gt;tapschema:ForeignKey</title>
<path fill="none" stroke="blue" d="M287.22,-417.18C288.02,-411.22 289.52,-405.34 292,-400 293.7,-396.35 295.87,-392.88 298.34,-389.62"/>
<polygon fill="blue" stroke="blue" points="287.21,-417.4 290.81,-423.65 286.44,-429.38 282.83,-423.13 287.21,-417.4"/>
<polygon fill="blue" stroke="blue" points="305.05,-381.94 301.87,-392.43 301.76,-385.7 298.48,-389.47 298.48,-389.47 298.48,-389.47 301.76,-385.7 295.09,-386.51 305.05,-381.94 305.05,-381.94"/>
<text text-anchor="middle" x="306" y="-403" font-family="Times,serif" font-size="10.00">fkeys</text>
<text text-anchor="middle" x="296.05" y="-384.94" font-family="Times,serif" font-size="10.00">0..*</text>
</g>
<!-- tapschema:ForeignKey&#45;&gt;tapschema:table -->
<g id="edge5" class="edge">
<title>tapschema:ForeignKey&#45;&gt;tapschema:table</title>
<path fill="none" stroke="green" d="M332.55,-381.74C328.87,-391.04 324.47,-401.6 320,-411 318.52,-414.1 316.95,-417.28 315.32,-420.46"/>
<polygon fill="green" stroke="green" points="310.64,-429.36 311.31,-418.41 312.96,-424.93 315.29,-420.51 315.29,-420.51 315.29,-420.51 312.96,-424.93 319.27,-422.6 310.64,-429.36 310.64,-429.36"/>
<text text-anchor="middle" x="355" y="-403" font-family="Times,serif" font-size="10.00">target_table</text>
<text text-anchor="middle" x="307.14" y="-421.36" font-family="Times,serif" font-size="10.00">1</text>
</g>
<!-- tapschema:FKColumn -->
<g id="node7" class="node">
<title>tapschema:FKColumn</title>
<g id="a_node7"><a xlink:href="../tapschema/FKColumn" xlink:title="{FKColumn}">
<polygon fill="#8dd3c7" stroke="black" points="312.5,-245.5 312.5,-281.5 371.5,-281.5 371.5,-245.5 312.5,-245.5"/>
<text text-anchor="middle" x="342" y="-261.6" font-family="Times,serif" font-size="8.00">FKColumn</text>
</a>
</g>
</g>
<!-- tapschema:ForeignKey&#45;&gt;tapschema:FKColumn -->
<g id="edge4" class="edge">
<title>tapschema:ForeignKey&#45;&gt;tapschema:FKColumn</title>
<path fill="none" stroke="blue" d="M342,-317.09C342,-308.65 342,-299.85 342,-291.92"/>
<polygon fill="blue" stroke="blue" points="342,-317.43 346,-323.43 342,-329.43 338,-323.43 342,-317.43"/>
<polygon fill="blue" stroke="blue" points="342,-281.75 346.5,-291.75 342,-286.75 342,-291.75 342,-291.75 342,-291.75 342,-286.75 337.5,-291.75 342,-281.75 342,-281.75"/>
<text text-anchor="middle" x="363.5" y="-303" font-family="Times,serif" font-size="10.00">columns</text>
<text text-anchor="middle" x="333" y="-284.75" font-family="Times,serif" font-size="10.00">1..*</text>
</g>
<!-- tapschema:FKColumn&#45;&gt;tapschema:column -->
<g id="edge6" class="edge">
<title>tapschema:FKColumn&#45;&gt;tapschema:column</title>
<path fill="none" stroke="green" d="M312.25,-249.54C303.13,-243.99 294.16,-236.55 289,-227 285.74,-220.98 283.47,-214.43 281.96,-207.67"/>
<polygon fill="green" stroke="green" points="280.26,-197.65 286.37,-206.76 281.1,-202.58 281.93,-207.51 281.93,-207.51 281.93,-207.51 281.1,-202.58 277.5,-208.26 280.26,-197.65 280.26,-197.65"/>
<text text-anchor="middle" x="322.5" y="-219" font-family="Times,serif" font-size="10.00">from_column</text>
<text text-anchor="middle" x="276.76" y="-200.65" font-family="Times,serif" font-size="10.00">1</text>
</g>
<!-- tapschema:FKColumn&#45;&gt;tapschema:column -->
<g id="edge7" class="edge">
<title>tapschema:FKColumn&#45;&gt;tapschema:column</title>
<path fill="none" stroke="green" d="M352.41,-245.18C356.38,-236.4 359.26,-225.58 356,-216 354.94,-212.88 353.72,-209.79 352.37,-206.73"/>
<polygon fill="green" stroke="green" points="347.94,-197.66 356.37,-204.67 350.13,-202.15 352.33,-206.64 352.33,-206.64 352.33,-206.64 350.13,-202.15 348.29,-208.62 347.94,-197.66 347.94,-197.66"/>
<text text-anchor="middle" x="394" y="-219" font-family="Times,serif" font-size="10.00">target_column</text>
<text text-anchor="middle" x="344.44" y="-200.66" font-family="Times,serif" font-size="10.00">1</text>
</g>
</g>
</svg>
